<mxfile host="65bd71144e">
    <diagram id="LyrWyAjAx8_s4qvQboRV" name="Page-1">
        <mxGraphModel dx="4035" dy="1975" grid="1" gridSize="10" guides="1" tooltips="1" connect="1" arrows="1" fold="1" page="1" pageScale="1" pageWidth="1100" pageHeight="850" math="0" shadow="0">
            <root>
                <mxCell id="0"/>
                <mxCell id="1" parent="0"/>
                <mxCell id="9" value="" style="edgeStyle=none;html=1;" parent="1" source="3" target="8" edge="1">
                    <mxGeometry relative="1" as="geometry"/>
                </mxCell>
                <mxCell id="3" value="func(numbers)" style="ellipse;whiteSpace=wrap;html=1;" parent="1" vertex="1">
                    <mxGeometry x="345" y="20" width="120" height="60" as="geometry"/>
                </mxCell>
                <mxCell id="43" value="False" style="edgeStyle=none;html=1;" parent="1" source="4" target="42" edge="1">
                    <mxGeometry relative="1" as="geometry"/>
                </mxCell>
                <mxCell id="92" value="True" style="edgeStyle=none;html=1;" edge="1" parent="1" source="4" target="91">
                    <mxGeometry relative="1" as="geometry"/>
                </mxCell>
                <mxCell id="4" value="i &amp;lt; len(numbers)" style="shape=hexagon;perimeter=hexagonPerimeter2;whiteSpace=wrap;html=1;fixedSize=1;" parent="1" vertex="1">
                    <mxGeometry x="330" y="270" width="150" height="80" as="geometry"/>
                </mxCell>
                <mxCell id="10" value="" style="edgeStyle=none;html=1;" parent="1" source="8" target="4" edge="1">
                    <mxGeometry relative="1" as="geometry"/>
                </mxCell>
                <mxCell id="8" value="max = f(numbers, 0)" style="whiteSpace=wrap;html=1;" parent="1" vertex="1">
                    <mxGeometry x="345" y="140" width="120" height="60" as="geometry"/>
                </mxCell>
                <mxCell id="42" value="max" style="ellipse;whiteSpace=wrap;html=1;" parent="1" vertex="1">
                    <mxGeometry x="575" y="280" width="120" height="60" as="geometry"/>
                </mxCell>
                <mxCell id="48" value="" style="edgeStyle=none;html=1;" parent="1" source="44" target="47" edge="1">
                    <mxGeometry relative="1" as="geometry"/>
                </mxCell>
                <mxCell id="44" value="f_2(numbers, index)" style="ellipse;whiteSpace=wrap;html=1;" parent="1" vertex="1">
                    <mxGeometry x="1650" y="20" width="120" height="60" as="geometry"/>
                </mxCell>
                <mxCell id="70" value="True" style="edgeStyle=none;html=1;" edge="1" parent="1" source="45" target="69">
                    <mxGeometry relative="1" as="geometry"/>
                </mxCell>
                <mxCell id="90" value="False" style="edgeStyle=none;html=1;" edge="1" parent="1" source="45" target="83">
                    <mxGeometry relative="1" as="geometry"/>
                </mxCell>
                <mxCell id="45" value="min_num - 1 != max(numbers)" style="shape=hexagon;perimeter=hexagonPerimeter2;whiteSpace=wrap;html=1;fixedSize=1;" parent="1" vertex="1">
                    <mxGeometry x="1615" y="305" width="190" height="60" as="geometry"/>
                </mxCell>
                <mxCell id="49" value="" style="edgeStyle=none;html=1;" edge="1" parent="1" source="47" target="45">
                    <mxGeometry relative="1" as="geometry"/>
                </mxCell>
                <mxCell id="47" value="new_list = [numbers[index]]&lt;br&gt;min_num = new_list[0]&lt;br&gt;index += 1" style="whiteSpace=wrap;html=1;" parent="1" vertex="1">
                    <mxGeometry x="1612.5" y="150" width="195" height="55" as="geometry"/>
                </mxCell>
                <mxCell id="64" value="True" style="edgeStyle=none;html=1;" edge="1" parent="1" source="60" target="63">
                    <mxGeometry relative="1" as="geometry"/>
                </mxCell>
                <mxCell id="78" value="False" style="edgeStyle=none;html=1;entryX=1;entryY=0.5;entryDx=0;entryDy=0;" edge="1" parent="1" source="60" target="82">
                    <mxGeometry relative="1" as="geometry">
                        <mxPoint x="1460" y="640" as="targetPoint"/>
                    </mxGeometry>
                </mxCell>
                <mxCell id="89" value="False" style="edgeStyle=none;html=1;" edge="1" parent="1" source="60">
                    <mxGeometry relative="1" as="geometry">
                        <mxPoint x="1540" y="335" as="targetPoint"/>
                        <Array as="points">
                            <mxPoint x="1570" y="640"/>
                            <mxPoint x="1540" y="545"/>
                        </Array>
                    </mxGeometry>
                </mxCell>
                <mxCell id="60" value="i &amp;lt; len(numbers)" style="shape=hexagon;perimeter=hexagonPerimeter2;whiteSpace=wrap;html=1;fixedSize=1;" vertex="1" parent="1">
                    <mxGeometry x="1610" y="605" width="200" height="70" as="geometry"/>
                </mxCell>
                <mxCell id="66" value="True" style="edgeStyle=none;html=1;" edge="1" parent="1" source="63" target="65">
                    <mxGeometry relative="1" as="geometry"/>
                </mxCell>
                <mxCell id="76" value="False" style="edgeStyle=none;html=1;entryX=1;entryY=0.5;entryDx=0;entryDy=0;" edge="1" parent="1" source="63" target="72">
                    <mxGeometry relative="1" as="geometry">
                        <Array as="points">
                            <mxPoint x="1900" y="810"/>
                            <mxPoint x="1900" y="1135"/>
                        </Array>
                    </mxGeometry>
                </mxCell>
                <mxCell id="63" value="min_num + 1 ==&amp;nbsp; numbers[i]" style="rhombus;whiteSpace=wrap;html=1;" vertex="1" parent="1">
                    <mxGeometry x="1615" y="765" width="190" height="90" as="geometry"/>
                </mxCell>
                <mxCell id="75" value="" style="edgeStyle=none;html=1;" edge="1" parent="1" source="65" target="72">
                    <mxGeometry relative="1" as="geometry"/>
                </mxCell>
                <mxCell id="65" value="new_list.append(number[i])&lt;br&gt;min_num += 1&lt;br&gt;index = i + 1&lt;br&gt;break&amp;nbsp;" style="whiteSpace=wrap;html=1;" vertex="1" parent="1">
                    <mxGeometry x="1625" y="945" width="170" height="60" as="geometry"/>
                </mxCell>
                <mxCell id="71" value="" style="edgeStyle=none;html=1;" edge="1" parent="1" source="69" target="60">
                    <mxGeometry relative="1" as="geometry"/>
                </mxCell>
                <mxCell id="69" value="i = index" style="whiteSpace=wrap;html=1;" vertex="1" parent="1">
                    <mxGeometry x="1650" y="445" width="120" height="60" as="geometry"/>
                </mxCell>
                <mxCell id="79" style="edgeStyle=none;html=1;entryX=1;entryY=0.5;entryDx=0;entryDy=0;" edge="1" parent="1" source="72" target="60">
                    <mxGeometry relative="1" as="geometry">
                        <Array as="points">
                            <mxPoint x="1710" y="1225"/>
                            <mxPoint x="1950" y="1225"/>
                            <mxPoint x="1950" y="640"/>
                        </Array>
                    </mxGeometry>
                </mxCell>
                <mxCell id="72" value="i += 1" style="whiteSpace=wrap;html=1;" vertex="1" parent="1">
                    <mxGeometry x="1650" y="1105" width="120" height="60" as="geometry"/>
                </mxCell>
                <mxCell id="88" style="edgeStyle=none;html=1;entryX=0;entryY=0.5;entryDx=0;entryDy=0;" edge="1" parent="1" source="80" target="45">
                    <mxGeometry relative="1" as="geometry">
                        <Array as="points">
                            <mxPoint x="1360" y="335"/>
                        </Array>
                    </mxGeometry>
                </mxCell>
                <mxCell id="80" value="min_num += 1" style="whiteSpace=wrap;html=1;" vertex="1" parent="1">
                    <mxGeometry x="1300" y="455" width="120" height="60" as="geometry"/>
                </mxCell>
                <mxCell id="87" value="True" style="edgeStyle=none;html=1;entryX=0.5;entryY=1;entryDx=0;entryDy=0;" edge="1" parent="1" source="82" target="80">
                    <mxGeometry relative="1" as="geometry"/>
                </mxCell>
                <mxCell id="82" value="&lt;span&gt;don't used&lt;br&gt;min_num + 1 ==&amp;nbsp; numbers[i]&amp;nbsp;&lt;/span&gt;" style="rhombus;whiteSpace=wrap;html=1;" vertex="1" parent="1">
                    <mxGeometry x="1260" y="595" width="200" height="90" as="geometry"/>
                </mxCell>
                <mxCell id="83" value="new_list" style="ellipse;whiteSpace=wrap;html=1;" vertex="1" parent="1">
                    <mxGeometry x="1910" y="305" width="120" height="60" as="geometry"/>
                </mxCell>
                <mxCell id="97" value="" style="edgeStyle=none;html=1;" edge="1" parent="1" source="91" target="96">
                    <mxGeometry relative="1" as="geometry"/>
                </mxCell>
                <mxCell id="91" value="list_1 = f(numbers, i)&lt;br&gt;list_2 = f_2(numbers, i)" style="whiteSpace=wrap;html=1;" vertex="1" parent="1">
                    <mxGeometry x="325" y="440" width="160" height="70" as="geometry"/>
                </mxCell>
                <mxCell id="99" value="True" style="edgeStyle=none;html=1;" edge="1" parent="1" source="96" target="98">
                    <mxGeometry relative="1" as="geometry"/>
                </mxCell>
                <mxCell id="102" value="False" style="edgeStyle=none;html=1;" edge="1" parent="1" source="96" target="101">
                    <mxGeometry relative="1" as="geometry"/>
                </mxCell>
                <mxCell id="96" value="len(list_2) &gt; len(max)" style="rhombus;whiteSpace=wrap;html=1;" vertex="1" parent="1">
                    <mxGeometry x="315" y="585" width="180" height="75" as="geometry"/>
                </mxCell>
                <mxCell id="109" style="edgeStyle=none;html=1;" edge="1" parent="1" source="98">
                    <mxGeometry relative="1" as="geometry">
                        <mxPoint x="405" y="870" as="targetPoint"/>
                    </mxGeometry>
                </mxCell>
                <mxCell id="98" value="max.clear()&lt;br&gt;max = list_2" style="whiteSpace=wrap;html=1;" vertex="1" parent="1">
                    <mxGeometry x="345" y="747.5" width="120" height="60" as="geometry"/>
                </mxCell>
                <mxCell id="104" value="True" style="edgeStyle=none;html=1;" edge="1" parent="1" source="101" target="103">
                    <mxGeometry relative="1" as="geometry"/>
                </mxCell>
                <mxCell id="107" value="" style="edgeStyle=none;html=1;entryX=0;entryY=0.5;entryDx=0;entryDy=0;" edge="1" parent="1" source="101" target="4">
                    <mxGeometry relative="1" as="geometry">
                        <Array as="points">
                            <mxPoint x="855" y="623"/>
                            <mxPoint x="855" y="870"/>
                            <mxPoint x="225" y="870"/>
                            <mxPoint x="225" y="310"/>
                        </Array>
                    </mxGeometry>
                </mxCell>
                <mxCell id="101" value="len(list_1) &amp;gt; len(max)" style="rhombus;whiteSpace=wrap;html=1;" vertex="1" parent="1">
                    <mxGeometry x="575" y="585" width="180" height="75" as="geometry"/>
                </mxCell>
                <mxCell id="108" style="edgeStyle=none;html=1;" edge="1" parent="1" source="103">
                    <mxGeometry relative="1" as="geometry">
                        <mxPoint x="665" y="870" as="targetPoint"/>
                    </mxGeometry>
                </mxCell>
                <mxCell id="103" value="max.clear()&lt;br&gt;max = list_2" style="whiteSpace=wrap;html=1;" vertex="1" parent="1">
                    <mxGeometry x="605" y="747.5" width="120" height="60" as="geometry"/>
                </mxCell>
                <mxCell id="110" value="False" style="text;html=1;align=center;verticalAlign=middle;resizable=0;points=[];autosize=1;strokeColor=none;fillColor=none;" vertex="1" parent="1">
                    <mxGeometry x="835" y="700" width="40" height="20" as="geometry"/>
                </mxCell>
            </root>
        </mxGraphModel>
    </diagram>
</mxfile>